<svg width="1353" height="515" viewBox="0 0 1353 515" fill="none" xmlns="http://www.w3.org/2000/svg">
<path d="M0 0.0866089H500.771V515H0V0.0866089Z" fill="black"/>
<path d="M498 2.99998H1347V512H498V2.99998Z" fill="white"/>
<path d="M488 515L1352.52 515V0.0866089H488V515ZM494.019 6.10532H1346.5V508.983H494.019V6.10532Z" fill="black"/>
<path fill-rule="evenodd" clip-rule="evenodd" d="M210.624 92C218.768 92 223.861 100.816 219.797 107.876L167.073 199.454C163.879 205.001 167.881 211.928 174.28 211.928L234.739 211.928C240.585 211.928 245.324 216.669 245.324 222.518L245.324 315.398C245.324 323.916 256.599 326.932 260.848 319.551L347.197 169.569C350.391 164.022 346.389 157.095 339.99 157.095L279.531 157.095C273.685 157.095 268.946 152.354 268.946 146.505V102.59C268.946 96.7414 273.685 92 279.531 92L410.254 92C430.044 92 442.412 113.433 432.518 130.579L271.763 409.14C261.868 426.287 237.131 426.287 227.237 409.14L66.4825 130.579C56.5877 113.433 68.9562 92 88.7458 92L210.624 92Z" fill="white"/>
<path d="M1264.45 165.27H1268.14C1271.27 165.27 1274.13 165.117 1274.13 161.523C1274.13 158.514 1271.52 158.047 1269.14 158.047H1264.45V165.27ZM1260.92 155.186H1269.7C1275.11 155.186 1277.65 157.317 1277.65 161.689C1277.65 165.798 1275.06 167.511 1271.68 167.868L1278.17 177.909H1274.38L1268.19 168.131H1264.45V177.909H1260.92V155.186H1260.92ZM1268.5 183.154C1277.5 183.154 1284.46 175.979 1284.46 166.467C1284.46 157.161 1277.5 149.992 1268.5 149.992C1259.41 149.992 1252.44 157.161 1252.44 166.467C1252.44 175.979 1259.41 183.154 1268.5 183.154ZM1268.5 147.131C1279.12 147.131 1288 155.5 1288 166.467C1288 177.646 1279.12 186.015 1268.5 186.015C1257.84 186.015 1248.91 177.646 1248.91 166.467C1248.91 155.5 1257.85 147.131 1268.5 147.131Z" fill="black"/>
<path d="M599.372 225.204L621.27 148.4H642.595L610.225 245.472H596.179L599.372 225.204ZM579.197 148.4L601.031 225.204L604.351 245.472H590.178L558 148.4H579.197Z" fill="black"/>
<path d="M733.267 229.871V245.472H683.787V229.871H733.267ZM690.044 148.4V245.472H670.891V148.4H690.044ZM726.819 187.936V203.137H683.787V187.936H726.819ZM733.203 148.4V164.068H683.787V148.4H733.203Z" fill="black"/>
<path d="M837.73 194.736V233.205C836.283 235.027 834.048 237.005 831.027 239.139C828.005 241.228 824.11 243.028 819.343 244.539C814.576 246.05 808.808 246.806 802.041 246.806C796.039 246.806 790.57 245.783 785.633 243.739C780.695 241.65 776.439 238.605 772.864 234.605C769.331 230.605 766.607 225.716 764.692 219.938C762.776 214.115 761.819 207.47 761.819 200.003V193.936C761.819 186.469 762.734 179.824 764.564 174.002C766.437 168.179 769.097 163.268 772.545 159.267C775.992 155.267 780.1 152.223 784.867 150.134C789.634 148.045 794.933 147 800.764 147C808.851 147 815.491 148.378 820.684 151.134C825.876 153.845 829.835 157.623 832.559 162.468C835.325 167.268 837.028 172.779 837.666 179.002H819.087C818.619 175.713 817.725 172.846 816.406 170.401C815.087 167.957 813.192 166.046 810.724 164.668C808.298 163.29 805.148 162.601 801.275 162.601C798.083 162.601 795.231 163.29 792.72 164.668C790.251 166.001 788.165 167.979 786.463 170.601C784.76 173.224 783.462 176.468 782.568 180.335C781.674 184.202 781.227 188.691 781.227 193.803V200.003C781.227 205.07 781.696 209.559 782.632 213.47C783.568 217.337 784.952 220.604 786.782 223.271C788.655 225.893 790.953 227.871 793.677 229.205C796.401 230.538 799.572 231.205 803.19 231.205C806.212 231.205 808.723 230.938 810.724 230.405C812.767 229.871 814.406 229.227 815.64 228.471C816.917 227.671 817.896 226.916 818.577 226.205V209.004H801.083V194.736H837.73Z" fill="black"/>
<path d="M910.59 165.001L885.307 245.472H864.941L899.481 148.4H912.442L910.59 165.001ZM931.595 245.472L906.249 165.001L904.206 148.4H917.294L952.025 245.472H931.595ZM930.446 209.337V225.004H881.349V209.337H930.446Z" fill="black"/>
<path d="M1040.02 229.871V245.472H993.218V229.871H1040.02ZM999.411 148.4V245.472H980.258V148.4H999.411Z" fill="black"/>
<path d="M1119.77 148.4H1138.86V212.537C1138.86 220.004 1137.33 226.293 1134.26 231.405C1131.24 236.516 1127.05 240.361 1121.69 242.939C1116.37 245.517 1110.24 246.806 1103.3 246.806C1096.36 246.806 1090.19 245.517 1084.78 242.939C1079.42 240.361 1075.21 236.516 1072.14 231.405C1069.12 226.293 1067.61 220.004 1067.61 212.537V148.4H1086.76V212.537C1086.76 216.893 1087.42 220.449 1088.74 223.204C1090.06 225.96 1091.96 227.982 1094.43 229.271C1096.94 230.56 1099.89 231.205 1103.3 231.205C1106.79 231.205 1109.75 230.56 1112.17 229.271C1114.64 227.982 1116.52 225.96 1117.79 223.204C1119.11 220.449 1119.77 216.893 1119.77 212.537V148.4Z" fill="black"/>
<path d="M1190.01 148.4L1207.51 182.269L1225 148.4H1246.9L1219.89 196.536L1247.6 245.472H1225.51L1207.51 210.937L1189.5 245.472H1167.29L1195.06 196.536L1167.99 148.4H1190.01Z" fill="black"/>
<path d="M567.106 277.517V346.154H558V277.517H567.106Z" fill="black"/>
<path d="M639.823 338.752V346.154H605.474V338.752H639.823ZM607.267 277.517V346.154H598.161V277.517H607.267Z" fill="black"/>
<path d="M701.499 277.517H710.558V323.95C710.558 329.104 709.41 333.394 707.114 336.82C704.818 340.245 701.767 342.822 697.961 344.551C694.186 346.248 690.081 347.096 685.646 347.096C680.991 347.096 676.776 346.248 673.001 344.551C669.258 342.822 666.286 340.245 664.084 336.82C661.914 333.394 660.828 329.104 660.828 323.95V277.517H669.84V323.95C669.84 327.533 670.501 330.487 671.822 332.813C673.143 335.138 674.983 336.867 677.342 337.998C679.733 339.13 682.501 339.695 685.646 339.695C688.823 339.695 691.591 339.13 693.95 337.998C696.341 336.867 698.196 335.138 699.518 332.813C700.839 330.487 701.499 327.533 701.499 323.95V277.517Z" fill="black"/>
<path d="M742.227 277.517H751.05L773.555 333.473L796.014 277.517H804.884L776.953 346.154H770.064L742.227 277.517ZM739.349 277.517H747.134L748.407 319.378V346.154H739.349V277.517ZM799.93 277.517H807.715V346.154H798.656V319.378L799.93 277.517Z" fill="black"/>
<path d="M847.971 277.517V346.154H838.865V277.517H847.971Z" fill="black"/>
<path d="M931.87 277.517V346.154H922.716L888.132 293.214V346.154H879.026V277.517H888.132L922.858 330.597V277.517H931.87Z" fill="black"/>
<path d="M988.781 283.598L966.039 346.154H956.744L982.93 277.517H988.922L988.781 283.598ZM1007.84 346.154L985.053 283.598L984.912 277.517H990.904L1017.18 346.154H1007.84ZM1006.66 320.745V328.193H968.068V320.745H1006.66Z" fill="black"/>
<path d="M1081.79 324.327H1090.84C1090.37 328.664 1089.13 332.546 1087.12 335.971C1085.1 339.397 1082.26 342.115 1078.58 344.126C1074.9 346.106 1070.3 347.096 1064.8 347.096C1060.77 347.096 1057.11 346.342 1053.81 344.834C1050.54 343.325 1047.72 341.188 1045.36 338.422C1043 335.625 1041.18 332.278 1039.89 328.381C1038.63 324.453 1038 320.085 1038 315.276V308.441C1038 303.633 1038.63 299.28 1039.89 295.383C1041.18 291.455 1043.02 288.092 1045.41 285.295C1047.83 282.498 1050.74 280.345 1054.14 278.837C1057.53 277.328 1061.36 276.574 1065.6 276.574C1070.79 276.574 1075.18 277.548 1078.77 279.496C1082.35 281.445 1085.14 284.148 1087.12 287.605C1089.13 291.03 1090.37 295.006 1090.84 299.531H1081.79C1081.35 296.326 1080.53 293.576 1079.33 291.282C1078.14 288.956 1076.44 287.165 1074.24 285.908C1072.03 284.651 1069.16 284.022 1065.6 284.022C1062.55 284.022 1059.86 284.603 1057.53 285.766C1055.24 286.929 1053.3 288.579 1051.73 290.716C1050.19 292.853 1049.03 295.414 1048.24 298.4C1047.45 301.385 1047.06 304.701 1047.06 308.347V315.276C1047.06 318.639 1047.41 321.797 1048.1 324.752C1048.82 327.706 1049.91 330.298 1051.35 332.53C1052.8 334.761 1054.64 336.521 1056.87 337.81C1059.11 339.067 1061.75 339.695 1064.8 339.695C1068.67 339.695 1071.75 339.082 1074.05 337.857C1076.34 336.631 1078.07 334.871 1079.24 332.577C1080.43 330.283 1081.28 327.533 1081.79 324.327ZM1061.54 346.625H1067.82L1067.25 349.123C1069.08 349.438 1070.73 350.192 1072.21 351.386C1073.72 352.58 1074.47 354.545 1074.47 357.279C1074.47 358.756 1074.16 360.091 1073.53 361.286C1072.93 362.511 1072.03 363.548 1070.84 364.397C1069.64 365.277 1068.15 365.953 1066.36 366.424C1064.6 366.895 1062.54 367.131 1060.18 367.131L1059.85 362.087C1061.29 362.087 1062.6 361.93 1063.76 361.616C1064.96 361.301 1065.9 360.799 1066.59 360.107C1067.32 359.416 1067.68 358.52 1067.68 357.42C1067.68 356.383 1067.41 355.566 1066.88 354.969C1066.34 354.372 1065.51 353.916 1064.38 353.602C1063.27 353.319 1061.84 353.115 1060.08 352.989L1061.54 346.625Z" fill="black"/>
<path d="M1143.18 283.598L1120.44 346.154H1111.14L1137.33 277.517H1143.32L1143.18 283.598ZM1162.24 346.154L1139.45 283.598L1139.31 277.517H1145.3L1171.58 346.154H1162.24ZM1161.06 320.745V328.193H1122.47V320.745H1161.06ZM1152.33 260.027L1158.23 260.546C1158.23 262.84 1157.77 264.851 1156.86 266.58C1155.95 268.308 1154.72 269.644 1153.18 270.587C1151.67 271.53 1149.96 272.001 1148.04 272.001C1146.43 272.001 1145.11 271.781 1144.08 271.341C1143.04 270.87 1142.11 270.351 1141.29 269.785C1140.47 269.188 1139.61 268.67 1138.7 268.23C1137.82 267.758 1136.71 267.523 1135.39 267.523C1134.07 267.523 1132.96 268.026 1132.04 269.031C1131.16 270.037 1130.72 271.278 1130.72 272.755L1124.83 272.473C1124.83 270.178 1125.27 268.167 1126.15 266.438C1127.06 264.679 1128.29 263.311 1129.83 262.337C1131.37 261.332 1133.08 260.829 1134.97 260.829C1136.32 260.829 1137.5 261.064 1138.51 261.536C1139.55 261.976 1140.52 262.494 1141.43 263.091C1142.35 263.657 1143.29 264.176 1144.26 264.647C1145.24 265.087 1146.36 265.307 1147.61 265.307C1148.94 265.307 1150.05 264.804 1150.96 263.799C1151.88 262.762 1152.33 261.504 1152.33 260.027Z" fill="black"/>
<path d="M1247.6 309.667V314.004C1247.6 319.158 1246.96 323.777 1245.67 327.863C1244.38 331.948 1242.52 335.421 1240.1 338.281C1237.68 341.141 1234.77 343.325 1231.37 344.834C1228.01 346.342 1224.23 347.096 1220.05 347.096C1215.99 347.096 1212.26 346.342 1208.87 344.834C1205.5 343.325 1202.57 341.141 1200.09 338.281C1197.64 335.421 1195.73 331.948 1194.38 327.863C1193.03 323.777 1192.35 319.158 1192.35 314.004V309.667C1192.35 304.513 1193.01 299.908 1194.33 295.854C1195.69 291.769 1197.59 288.296 1200.04 285.436C1202.5 282.545 1205.41 280.345 1208.77 278.837C1212.17 277.328 1215.9 276.574 1219.95 276.574C1224.14 276.574 1227.91 277.328 1231.28 278.837C1234.67 280.345 1237.58 282.545 1240.01 285.436C1242.46 288.296 1244.33 291.769 1245.62 295.854C1246.94 299.908 1247.6 304.513 1247.6 309.667ZM1238.59 314.004V309.572C1238.59 305.487 1238.17 301.873 1237.32 298.73C1236.5 295.587 1235.29 292.947 1233.68 290.81C1232.08 288.673 1230.11 287.055 1227.79 285.955C1225.49 284.855 1222.88 284.305 1219.95 284.305C1217.12 284.305 1214.56 284.855 1212.26 285.955C1210 287.055 1208.05 288.673 1206.41 290.81C1204.81 292.947 1203.57 295.587 1202.68 298.73C1201.8 301.873 1201.36 305.487 1201.36 309.572V314.004C1201.36 318.12 1201.8 321.766 1202.68 324.94C1203.57 328.083 1204.82 330.738 1206.46 332.907C1208.13 335.044 1210.09 336.662 1212.36 337.762C1214.65 338.862 1217.22 339.412 1220.05 339.412C1223 339.412 1225.63 338.862 1227.93 337.762C1230.22 336.662 1232.16 335.044 1233.73 332.907C1235.33 330.738 1236.55 328.083 1237.36 324.94C1238.18 321.766 1238.59 318.12 1238.59 314.004Z" fill="black"/>
</svg>
